<svg width="24" height="25" viewBox="0 0 24 25" fill="none" xmlns="http://www.w3.org/2000/svg">
<g clip-path="url(#clip0_9_69)">
<path d="M19 4.5H18V2.5H16V4.5H8V2.5H6V4.5H5C3.89 4.5 3.01 5.4 3.01 6.5L3 20.5C3 21.6 3.89 22.5 5 22.5H19C20.1 22.5 21 21.6 21 20.5V6.5C21 5.4 20.1 4.5 19 4.5ZM19 20.5H5V10.5H19V20.5ZM19 8.5H5V6.5H19V8.5ZM12 13.5H17V18.5H12V13.5Z" fill="black"/>
</g>
<defs>
<clipPath id="clip0_9_69">
<rect width="24" height="24" fill="white" transform="translate(0 0.5)"/>
</clipPath>
</defs>
</svg>
