<svg width="22" height="27" viewBox="0 0 22 27" fill="none" xmlns="http://www.w3.org/2000/svg">
<path d="M10.9999 26.3334C12.4666 26.3334 13.6666 25.1334 13.6666 23.6667H8.33325C8.33325 25.1334 9.53325 26.3334 10.9999 26.3334ZM18.9999 18.3334V11.6667C18.9999 7.57337 16.8266 4.14671 12.9999 3.24004V2.33337C12.9999 1.22671 12.1066 0.333374 10.9999 0.333374C9.89325 0.333374 8.99992 1.22671 8.99992 2.33337V3.24004C5.18658 4.14671 2.99992 7.56004 2.99992 11.6667V18.3334L0.333252 21V22.3334H21.6666V21L18.9999 18.3334ZM16.3333 19.6667H5.66658V11.6667C5.66658 8.36004 7.67992 5.66671 10.9999 5.66671C14.3199 5.66671 16.3333 8.36004 16.3333 11.6667V19.6667Z" fill="#542FEA"/>
</svg>
