<svg width="112" height="112" viewBox="0 0 112 112" fill="none" xmlns="http://www.w3.org/2000/svg">
<path d="M48.5841 0H64.5841C69.7228 0.892523 72.5556 4.383 71.084 10L38.0841 104C35.9774 109.65 34.4353 111.065 31.0841 111H6.08406C-0.770569 111.101 -1.14567 108.57 1.58406 101.5L33.5841 10.5C36.8257 3.69218 39.3278 0.53787 48.5841 0Z" fill="#542FEA"/>
<path d="M66.0784 66.0003L80.0784 26.4999C81.6026 22.2092 82.4615 21.7914 84.0784 26.4999L110.078 100.5C112.903 109.3 110.631 110.433 104.578 110.5H82.5791C78.2849 110.323 76.2118 108.998 73.5791 102.5L66.0784 80.5003C64.1916 74.8372 64.2223 71.6624 66.0784 66.0003Z" fill="#542FEA"/>
</svg>
